{"title":"Life.of.Pi.2012.DvDScr.XviD.Feel-Free","uid":8037095,"size":1665149421,"categoryP":"video","categoryS":"movies","magnet":"?xt=urn:btih:6600b817fcc0ea07e94a53c1a71e76a1cb2a478a&amp;dn=Life.of.Pi.2012.DvDScr.XviD.Feel-Free&amp;tr=udp%3A%2F%2Ftracker.openbittorrent.com%3A80&amp;tr=udp%3A%2F%2Fopen.demonii.com%3A1337&amp;tr=udp%3A%2F%2Ftracker.coppersurfer.tk%3A6969&amp;tr=udp%3A%2F%2Fexodus.desync.com%3A6969","seeders":0,"leechers":1,"uploader":"SaM","files":9,"time":1358539139,"description":"Genre:Adventure | Drama\nLanguage:English\nIMDb:http://www.imdb.com/title/tt0454876/\nSource:DVDSCR NoGrP Thanks\nEncoder:Tony\n\nFormat : AVI\nFormat/Info : Audio Video Interleave\nFile size : 1.55 GiB\nDuration : 2h 6mn\nOverall bit rate : 1 747 Kbps\n\nVideo\nID : 0\nFormat : MPEG-4 Visual\nFormat profile : Advanced Simple@L5\nFormat settings, BVOP : 1\nFormat settings, QPel : No\nFormat settings, GMC : No warppoints\nFormat settings, Matrix : Default (H.263)\nCodec ID : XVID\nCodec ID/Hint : XviD\nDuration : 2h 6mn\nBit rate : 1 546 Kbps\nWidth : 640 pixels\nHeight : 352 pixels\nDisplay aspect ratio : 16:9\nFrame rate : 23.976 fps\nColor space : YUV\nChroma subsampling : 4:2:0\nBit depth : 8 bits\nScan type : Progressive\nCompression mode : Lossy\nBits/(Pixel*Frame) : 0.286\nStream size : 1.37 GiB (88%)\nWriting library : XviD 1.2.1 (UTC 2008-12-04)\n\nAudio\nID : 1\nFormat : AC-3\nFormat/Info : Audio Coding 3\nMode extension : CM (complete main)\nCodec ID : 2000\nDuration : 2h 6mn\nBit rate mode : Constant\nBit rate : 192 Kbps\nChannel(s) : 2 channels\nChannel positions : Front: L R\nSampling rate : 48.0 KHz\nBit depth : 16 bits\nCompression mode : Lossy\nStream size : 174 MiB (11%)\nAlignment : Aligned on interleaves\nInterleave, duration : 42 ms (1.00 video frame)\nInterleave, preload duration : 512 ms\n\nPlot:\nA young man who survives a disaster at sea is hurtled into an epic journey of adventure and discovery. While cast away, he forms an unexpected connection with another survivor ... a fearsome Bengal tiger.\n &lt;a href=&quot;\nhttp://lookpic.com/O/i2/526/NMmEzvWY.png&quot; rel=&quot;nofollow&quot; target=&quot;_NEW&quot;&gt;\nhttp://lookpic.com/O/i2/526/NMmEzvWY.png&lt;/a&gt;\n &lt;a href=&quot;\nhttp://lookpic.com/O/i2/533/483LcPRe.png&quot; rel=&quot;nofollow&quot; target=&quot;_NEW&quot;&gt;\nhttp://lookpic.com/O/i2/533/483LcPRe.png&lt;/a&gt;\n &lt;a href=&quot;\nhttp://lookpic.com/O/i2/1225/FmrVU8Qv.png&quot; rel=&quot;nofollow&quot; target=&quot;_NEW&quot;&gt;\nhttp://lookpic.com/O/i2/1225/FmrVU8Qv.png&lt;/a&gt;\n &lt;a href=&quot;\nhttp://lookpic.com/O/i2/51/DeraUttB.png&quot; rel=&quot;nofollow&quot; target=&quot;_NEW&quot;&gt;\nhttp://lookpic.com/O/i2/51/DeraUttB.png&lt;/a&gt;\n &lt;a href=&quot;\nhttp://lookpic.com/O/i2/750/iIqb41kU.png&quot; rel=&quot;nofollow&quot; target=&quot;_NEW&quot;&gt;\nhttp://lookpic.com/O/i2/750/iIqb41kU.png&lt;/a&gt;","torrent":{"xt":"urn:btih:6600b817fcc0ea07e94a53c1a71e76a1cb2a478a","amp;dn":"Life.of.Pi.2012.DvDScr.XviD.Feel-Free","amp;tr":["udp%3A%2F%2Ftracker.openbittorrent.com%3A80","udp%3A%2F%2Fopen.demonii.com%3A1337","udp%3A%2F%2Ftracker.coppersurfer.tk%3A6969","udp%3A%2F%2Fexodus.desync.com%3A6969"],"infoHash":"6600b817fcc0ea07e94a53c1a71e76a1cb2a478a","infoHashBuffer":{"type":"Buffer","data":[102,0,184,23,252,192,234,7,233,74,83,193,167,30,118,161,203,42,71,138]},"announce":[],"urlList":[]}}